# File created by Blade
# Date/Time:  Thu Sep 25 17:43:48 2014
# Frame Rate: 120.000 fps
#------------------------------------------------------
:FULLY-SPECIFIED
:DEGREES
207
root -36.593973 32.860912 -0.637918 -357.121938 -64.334628 5.538221
Spine -6.155029 2.279091 2.345892
Head -13.444428 1.524166 2.255414
LeftShoulder -9.419154 23.394988 5.983558
LeftArm 32.607732 41.364898 -60.917299
LeftForeArm -3.746761 -0.000000 23.098774
LeftHand -26.726182 -0.000000 2.817867
LeftHandThumb1 -26.253704 0.000000 33.147579
RightShoulder -16.536881 6.342049 -22.311260
RightArm -15.301805 -49.660696 97.073950
RightForeArm -10.903547 -0.000000 30.538191
RightHand -3.380929 0.000000 13.497756
RightHandThumb1 -24.326973 -0.000000 -32.862282
LeftUpLeg 6.774249 2.441311 3.246128
LeftLeg 27.598163 -0.000000 -0.000000
LeftFoot 29.244661 23.724299 352.059189
LeftToeBase -16.097795 -0.000000 0.000000
RightUpLeg -14.146519 -15.717263 2.568998
RightLeg 12.279548 -0.000000 -0.000000
RightFoot -5.168232 -11.604549 -8.751578
RightToeBase -1.729915 -0.000000 0.000000
208
root -36.739117 32.890055 -0.661460 -357.153153 -62.739911 5.547856
Spine -5.942104 2.228997 2.252530
Head -13.690988 1.754163 2.182495
LeftShoulder -9.528341 23.185660 5.810153
LeftArm 32.476365 41.043817 -61.725965
LeftForeArm -4.237045 0.000000 23.093312
LeftHand -26.778539 0.000000 3.016840
LeftHandThumb1 -26.253704 0.000000 33.147579
RightShoulder -16.513343 6.413021 -22.305644
RightArm -15.256407 -49.717153 97.277332
RightForeArm -10.158955 -0.000000 30.617060
RightHand -3.359483 -0.000000 13.162381
RightHandThumb1 -24.326973 -0.000000 -32.862282
LeftUpLeg 6.739546 2.214306 3.639287
LeftLeg 27.295382 -0.000000 -0.000000
LeftFoot 29.025522 24.526821 351.895584
LeftToeBase -15.320993 -0.000000 0.000000
RightUpLeg -13.821335 -15.998847 2.477327
RightLeg 12.415236 -0.000000 -0.000000
RightFoot -5.157461 -12.821022 -8.474611
RightToeBase -1.760794 -0.000000 0.000000
209
root -36.883495 32.919399 -0.706215 -356.902512 -61.198869 5.302542
Spine -5.782766 2.349748 2.234062
Head -13.899598 1.925091 2.136321
LeftShoulder -9.505672 22.974893 5.698325
LeftArm 32.347545 40.858590 -62.437272
LeftForeArm -4.705673 -0.000000 23.236275
LeftHand -27.302747 0.000000 3.600805
LeftHandThumb1 -26.253704 0.000000 33.147579
RightShoulder -16.563717 6.452788 -22.301417
RightArm -15.216978 -49.690149 97.488428
RightForeArm -9.762560 0.000000 30.703286
RightHand -3.277565 -0.000000 13.206804
RightHandThumb1 -24.326973 -0.000000 -32.862282
LeftUpLeg 6.585926 2.157941 4.218106
LeftLeg 27.075336 -0.000000 -0.000000
LeftFoot 28.538158 25.207317 351.566429
LeftToeBase -14.053668 -0.000000 0.000000
RightUpLeg -13.582190 -16.668422 2.662567
RightLeg 12.546724 -0.000000 -0.000000
RightFoot -5.009585 -13.233224 -8.337206
RightToeBase -1.772194 -0.000000 0.000000
210
root -37.024591 32.951536 -0.754065 -356.647480 -59.616206 5.044386
Spine -5.601638 2.420396 2.243373
Head -14.115529 2.297223 2.135213
LeftShoulder -9.621683 22.768847 5.510318
LeftArm 32.271436 40.663736 -63.059748
LeftForeArm -4.834857 -0.000000 23.299064
LeftHand -27.358721 -0.000000 3.534920
LeftHandThumb1 -26.253704 0.000000 33.147579
RightShoulder -16.582853 6.496653 -22.293240
RightArm -15.175238 -49.685434 97.713525
RightForeArm -9.227668 -0.000000 30.789696
RightHand -3.195575 -0.000000 13.212762
RightHandThumb1 -24.326973 -0.000000 -32.862282
LeftUpLeg 6.435576 2.158236 4.830607
LeftLeg 26.783382 -0.000000 -0.000000
LeftFoot 28.021282 26.030089 351.435638
LeftToeBase -12.710285 -0.000000 0.000000
RightUpLeg -13.296346 -17.262702 2.836025
RightLeg 12.651132 -0.000000 -0.000000
RightFoot -5.028757 -13.618383 -8.080627
RightToeBase -1.539971 -0.000000 0.000000
211
root -37.171472 32.984179 -0.802048 -356.393457 -58.010665 4.714656
Spine -5.372676 2.566854 2.323173
Head -14.319500 2.622226 2.093089
LeftShoulder -9.660118 22.667889 5.327623
LeftArm 32.295962 40.507483 -63.543586
LeftForeArm -4.870712 0.000000 23.405695
LeftHand -27.315897 -0.000000 2.939482
LeftHandThumb1 -26.253704 0.000000 33.147579
RightShoulder -16.544281 6.539653 -22.293748
RightArm -15.207781 -49.501003 97.907651
RightForeArm -9.461200 0.000000 30.989189
RightHand -3.071453 -0.000000 13.787473
RightHandThumb1 -24.326973 -0.000000 -32.862282
LeftUpLeg 6.309940 2.167479 5.496666
LeftLeg 26.493303 -0.000000 -0.000000
LeftFoot 27.618925 26.607169 351.601938
LeftToeBase -12.309928 -0.000000 0.000000
RightUpLeg -12.886327 -17.882918 3.058356
RightLeg 12.556801 -0.000000 -0.000000
RightFoot -4.825141 -14.247804 -7.533568
RightToeBase -2.643085 -0.000000 0.000000
212
root -37.307563 33.018956 -0.823056 -356.475479 -56.373025 4.720647
Spine -5.114784 2.655787 2.239387
Head -14.476632 2.982372 2.087849
LeftShoulder -9.775249 22.594187 5.119168
LeftArm 32.435513 40.577250 -63.833482
LeftForeArm -4.917326 0.000000 23.478086
LeftHand -26.883519 0.000000 2.933199
LeftHandThumb1 -26.253704 0.000000 33.147579
RightShoulder -16.488201 6.553766 -22.278716
RightArm -15.255912 -49.434457 98.150549
RightForeArm -9.018813 -0.000000 31.148587
RightHand -2.926107 -0.000000 13.893196
RightHandThumb1 -24.326973 -0.000000 -32.862282
LeftUpLeg 6.266312 2.156588 5.918309
LeftLeg 26.066436 -0.000000 -0.000000
LeftFoot 26.727788 27.600782 351.249227
LeftToeBase -10.095329 -0.000000 0.000000
RightUpLeg -12.444347 -18.641451 3.081348
RightLeg 12.335690 -0.000000 -0.000000
RightFoot -4.335214 -15.123062 -7.773012
RightToeBase -3.047333 -0.000000 0.000000
213
root -37.438541 33.056973 -0.842147 -356.513805 -54.727385 4.714415
Spine -4.911614 2.823496 2.197853
Head -14.581140 3.308183 1.982840
LeftShoulder -9.882401 22.485664 4.852504
LeftArm 32.625631 40.791479 -63.914978
LeftForeArm -5.181237 -0.000000 23.626318
LeftHand -26.620692 -0.000000 2.392971
LeftHandThumb1 -26.253704 0.000000 33.147579
RightShoulder -16.454129 6.521407 -22.276278
RightArm -15.380497 -49.442284 98.454920
RightForeArm -8.115554 -0.000000 31.347022
RightHand -2.909096 0.000000 13.656116
RightHandThumb1 -24.326973 -0.000000 -32.862282
LeftUpLeg 6.156994 2.145535 6.317429
LeftLeg 25.621241 -0.000000 -0.000000
LeftFoot 25.530169 28.657294 350.708156
LeftToeBase -7.591721 -0.000000 0.000000
RightUpLeg -12.013870 -19.229342 3.099360
RightLeg 12.124309 -0.000000 -0.000000
RightFoot -4.219741 -15.998591 -7.426935
RightToeBase -2.744387 -0.000000 0.000000
214
root -37.572234 33.093097 -0.877484 -356.354998 -53.028034 4.481404
Spine -4.712978 2.983563 2.278554
Head -14.683119 3.632301 1.915656
LeftShoulder -10.188475 22.648106 4.482773
LeftArm 33.415688 41.119870 -63.435114
LeftForeArm -5.199640 -0.000000 23.697218
LeftHand -26.250716 -0.000000 1.805172
LeftHandThumb1 -26.253704 0.000000 33.147579
RightShoulder -16.409984 6.461399 -22.233943
RightArm -15.429181 -49.364970 98.640496
RightForeArm -7.585643 -0.000000 31.575008
RightHand -2.755011 -0.000000 13.752586
RightHandThumb1 -24.326973 -0.000000 -32.862282
LeftUpLeg 5.978207 2.342553 6.937600
LeftLeg 25.144161 -0.000000 -0.000000
LeftFoot 24.162310 29.536976 350.285487
LeftToeBase -6.403994 -0.000000 0.000000
RightUpLeg -11.561977 -19.561127 3.267788
RightLeg 11.895463 -0.000000 -0.000000
RightFoot -3.807091 -17.107151 -7.276957
RightToeBase -2.993058 -0.000000 0.000000
215
root -37.699950 33.128481 -0.908717 -356.288002 -51.304950 4.378966
Spine -4.573287 3.154726 2.260293
Head -14.676891 3.963954 1.916131
LeftShoulder -10.245137 22.605639 4.319892
LeftArm 33.833651 41.604138 -63.167507
LeftForeArm -5.247009 -0.000000 23.741681
LeftHand -25.569485 -0.000000 0.998497
LeftHandThumb1 -26.253704 0.000000 33.147579
RightShoulder -16.327393 6.397024 -22.155788
RightArm -15.584343 -49.269747 98.888414
RightForeArm -6.934442 -0.000000 31.886569
RightHand -2.779974 -0.000000 13.716349
RightHandThumb1 -24.326973 -0.000000 -32.862282
LeftUpLeg 5.749639 2.585397 7.467387
LeftLeg 24.649563 -0.000000 -0.000000
LeftFoot 22.439290 30.470563 349.555205
LeftToeBase -6.173675 -0.000000 0.000000
RightUpLeg -11.119116 -19.566383 3.317170
RightLeg 11.688515 -0.000000 -0.000000
RightFoot -3.558267 -18.339659 -6.734819
RightToeBase -3.002504 -0.000000 0.000000
216
root -37.816230 33.163925 -0.952833 -356.051477 -49.755824 4.167369
Spine -4.498978 3.518872 2.324610
Head -14.681656 4.328607 1.885477
LeftShoulder -10.328464 22.491733 4.120912
LeftArm 34.200282 42.088751 -62.883642
LeftForeArm -5.071297 -0.000000 23.779174
LeftHand -25.339408 0.000000 0.195192
LeftHandThumb1 -26.253704 0.000000 33.147579
RightShoulder -16.249396 6.364911 -22.109253
RightArm -15.730078 -49.254296 99.117298
RightForeArm -6.640139 -0.000000 32.147661
RightHand -2.510717 -0.000000 13.961449
RightHandThumb1 -24.326973 -0.000000 -32.862282
LeftUpLeg 5.429627 3.007894 8.026087
LeftLeg 24.085725 -0.000000 -0.000000
LeftFoot 20.698644 31.499596 348.944581
LeftToeBase -6.808712 -0.000000 0.000000
RightUpLeg -10.858010 -20.112027 3.587072
RightLeg 11.426528 -0.000000 -0.000000
RightFoot -3.156403 -19.069321 -6.638142
RightToeBase -3.109105 -0.000000 0.000000
